<svg viewBox="0 0 200 200" width="200" height="200" xmlns="http://www.w3.org/2000/svg">
  <!-- Nube -->
  <path d="M 50 120
           A 25 25 0 0 1 60 70
           A 35 35 0 0 1 135 65
           A 25 25 0 0 1 155 120
           Z"
        fill="#A2D2FF" />

  <!-- Ojos -->
  <circle cx="85" cy="95" r="4" fill="#2B2D42" />
  <circle cx="115" cy="95" r="4" fill="#2B2D42" />

  <!-- Mejillas -->
  <circle cx="76" cy="102" r="6" fill="#FFAABC" opacity="0.7" />
  <circle cx="124" cy="102" r="6" fill="#FFAABC" opacity="0.7" />

  <!-- Sonrisa -->
  <path d="M 92 104 Q 100 112 108 104" fill="none" stroke="#2B2D42" stroke-width="3" stroke-linecap="round" />

  <!-- Gotas de Lluvia -->
  <path d="M 70 140 Q 70 150 67 153 A 4 4 0 0 1 73 153 Q 70 150 70 140" fill="#BDE0FE" />
  <path d="M 100 145 Q 100 155 97 158 A 4 4 0 0 1 103 158 Q 100 155 100 145" fill="#BDE0FE" />
  <path d="M 130 140 Q 130 150 127 153 A 4 4 0 0 1 133 153 Q 130 150 130 140" fill="#BDE0FE" />
</svg>
